<?xml version="1.0" standalone="no"?>
<!DOCTYPE svg PUBLIC "-//W3C//DTD SVG 20010904//EN"
 "http://www.w3.org/TR/2001/REC-SVG-20010904/DTD/svg10.dtd">
<svg version="1.0" xmlns="http://www.w3.org/2000/svg"
 width="87.000000pt" height="531.000000pt" viewBox="0 0 87.000000 531.000000">

<g transform="translate(10.0000,600.000000) scale(0.1500000,-0.19900000)"
fill="#00000" stroke="white" stroke-width="5">
<path d="M357 4964 c-4 -4 -7 -72 -7 -151 l0 -143 -100 0 -100 0 0 -1970 0
-1970 110 0 110 0 2 -168 c3 -159 4 -167 23 -167 19 0 20 8 23 168 l2 167 110
0 110 0 0 1970 0 1970 -120 0 -119 0 -3 147 c-3 124 -5 148 -18 151 -9 1 -19
0 -23 -4z m233 -2264 l0 -1920 -80 0 c-46 0 -89 5 -100 12 -15 10 -22 10 -32
0 -7 -7 -43 -12 -95 -12 l-83 0 0 1920 0 1920 195 0 195 0 0 -1920z"/>
</g>
</svg>
