<?xml version="1.0" standalone="no"?>
<!DOCTYPE svg PUBLIC "-//W3C//DTD SVG 20010904//EN"
 "http://www.w3.org/TR/2001/REC-SVG-20010904/DTD/svg10.dtd">
<svg version="1.0" xmlns="http://www.w3.org/2000/svg"
 width="144.000000pt" height="422.000000pt" viewBox="0 0 144.000000 422.000000"
 preserveAspectRatio="xMidYMid meet">

<g transform="translate(10.0000,600.000000) scale(0.1500000,-0.19900000)"
fill="#00000" stroke="white" stroke-width="5">
<path d="M667 3314 c-4 -4 -7 -259 -7 -567 l0 -560 -70 5 -70 5 -100 -156
-100 -156 0 -287 0 -288 165 0 165 0 2 -327 c3 -320 3 -328 23 -328 20 0 20 8
23 327 l2 327 108 3 107 3 85 130 85 130 -3 308 -3 307 -184 0 -185 0 -2 562
c-3 499 -5 563 -18 566 -9 1 -19 0 -23 -4z m-5 -1231 c3 -50 6 -58 23 -58 17
0 20 8 23 58 l3 57 145 0 146 0 -50 -92 c-28 -51 -58 -108 -69 -125 l-18 -33
-237 0 c-131 0 -238 3 -238 7 0 3 32 55 70 114 39 60 70 113 70 119 0 6 28 10
65 10 l64 0 3 -57z m308 -597 l-60 -91 0 234 0 233 58 108 57 109 3 -252 2
-251 -60 -90z m-110 114 l0 -240 -245 0 -245 0 0 240 0 240 245 0 245 0 0
-240z"/>
</g>
</svg>
